<svg viewBox="0 0 74.455338 79.413223" width="74.455338mm" height="79.413223mm" xmlns="http://www.w3.org/2000/svg"><path d="m 20.385808,38.711021 h 16.259084 v 15.816647 c -3.871229,2.212191 -8.793199,4.534675 -16.646374,4.534675 -10.009801,0 -17.751844,-5.419552 -17.751844,-13.825461 V 33.844619 c 0,-8.350763 8.240048,-13.493742 17.917706,-13.493742 5.973126,0 11.66884,1.603473 15.208346,4.147389 l -1.990764,3.594654 c -3.097068,-2.101059 -7.853175,-3.539506 -12.996154,-3.539506 -7.189309,0 -13.32788,3.650638 -13.32788,9.678077 v 10.618101 c 0,6.249284 5.861995,10.0098 12.94059,10.0098 5.475122,0 8.848347,-1.382462 11.834702,-2.930788 V 42.692548 H 20.385808 Z" style="fill:#231f20;fill-opacity:1;fill-rule:nonzero;stroke:none;stroke-width:0.417789" /><path d="m 48.649561,34.673928 v 9.954235 c 0,5.19938 4.037092,7.300441 9.566941,7.300441 4.20338,0 7.96389,-0.774164 10.83994,-2.488351 l 2.76494,6.193301 c -3.98153,2.488769 -7.68731,3.428789 -14.10246,3.428789 -10.064952,0 -17.530837,-4.700538 -17.530837,-13.936176 V 34.231489 c 0,-8.627336 8.074186,-13.880612 17.475687,-13.880612 6.35999,0 10.45224,0.995591 14.54489,3.760517 l -3.04191,6.027856 c -2.98636,-1.714187 -6.35959,-2.65463 -11.00498,-2.65463 -5.087828,0 -9.512211,2.543916 -9.512211,7.189308" style="fill:#ed1c24;fill-opacity:1;fill-rule:nonzero;stroke:none;stroke-width:0.417789" /></svg>
